<svg xmlns="http://www.w3.org/2000/svg" xmlns:xlink="http://www.w3.org/1999/xlink" viewBox="0 0 23 32"><defs><linearGradient id="a" x1="22.405%" x2="76.229%" y1="17.027%" y2="92.887%"><stop offset="0%" stop-color="#FFF" stop-opacity=".1"/><stop offset="100%" stop-color="#FFF" stop-opacity="0"/></linearGradient><path id="b" d="M19.85 7.079a.72.72 0 0 0-.484-.568.708.708 0 0 0-.721.173l-3.67 3.75-2.907-5.58a.691.691 0 0 0-.62-.39.691.691 0 0 0-.62.39L9.25 7.904 5.26.403c-.319-.61-1.223-.449-1.329.233L.103 25.51l10.264 5.833a2.132 2.132 0 0 0 2.074 0l10.352-5.833L19.85 7.08z"/><path id="d" d="M19.85 7.079a.72.72 0 0 0-.484-.568.708.708 0 0 0-.721.173l-3.67 3.75-2.907-5.58a.691.691 0 0 0-.62-.39.691.691 0 0 0-.62.39L9.25 7.904 5.26.403c-.319-.61-1.223-.449-1.329.233L.103 25.51l10.264 5.833a2.132 2.132 0 0 0 2.074 0l10.352-5.833L19.85 7.08z"/><path id="f" d="M19.85 7.079a.72.72 0 0 0-.484-.568.708.708 0 0 0-.721.173l-3.67 3.75-2.907-5.58a.691.691 0 0 0-.62-.39.691.691 0 0 0-.62.39L9.25 7.904 5.26.403c-.319-.61-1.223-.449-1.329.233L.103 25.51l10.264 5.833a2.132 2.132 0 0 0 2.074 0l10.352-5.833L19.85 7.08z"/></defs><g fill="none" fill-rule="evenodd"><path fill="url(#a)" d="M19.85 7.079a.72.72 0 0 0-.484-.568.708.708 0 0 0-.721.173l-3.67 3.75-2.907-5.58a.691.691 0 0 0-.62-.39.691.691 0 0 0-.62.39L9.25 7.904 5.26.403c-.319-.61-1.223-.449-1.329.233L.103 25.51l10.264 5.833a2.132 2.132 0 0 0 2.074 0l10.352-5.833L19.85 7.08z" transform="translate(.04 .206)"/><g transform="translate(.04 .206)"><mask id="c" fill="#fff"><use xlink:href="#b"/></mask><g mask="url(#c)"><path fill="#FFA000" d="M.103 25.51L3.95.635c.106-.682 1.01-.843 1.33-.233l3.97 7.501 1.577-3.05a.708.708 0 0 1 .63-.387.71.71 0 0 1 .63.387l10.706 20.655H.103z"/><path fill="#F57C00" d="M13.362 15.818l-4.13-7.914L.103 25.51z"/><path fill="#FFCA28" d="M22.793 25.51L19.85 7.078a.72.72 0 0 0-.484-.568.708.708 0 0 0-.721.173L.103 25.51l10.264 5.833a2.132 2.132 0 0 0 2.074 0l10.352-5.833z"/><path fill="#FFF" fill-opacity=".2" fill-rule="nonzero" d="M19.85 7.079a.72.72 0 0 0-.484-.568.708.708 0 0 0-.721.173l-3.67 3.75-2.907-5.58a.691.691 0 0 0-.62-.39.691.691 0 0 0-.62.39L9.25 7.904 5.26.403c-.319-.61-1.223-.449-1.329.233L.103 25.51H.085l.018.018.106.054 14.749-14.967 3.687-3.733a.708.708 0 0 1 .72-.173.72.72 0 0 1 .485.568l2.907 18.251.036-.018L19.85 7.08zM.14 25.473L3.949.816C4.057.134 4.96-.028 5.28.582l3.97 7.502 1.578-3.051a.708.708 0 0 1 .63-.387c.264 0 .507.15.63.387l2.835 5.456L.14 25.473z"/><path fill="#A52714" d="M12.44 31.162a2.132 2.132 0 0 1-2.073 0L.12 25.348l-.018.161 10.264 5.833a2.132 2.132 0 0 0 2.074 0l10.352-5.833-.018-.161-10.334 5.814z" opacity=".2"/></g></g><g transform="translate(.04 .206)"><mask id="e" fill="#fff"><use xlink:href="#d"/></mask><path d="M-5.569-1.41h34.034v34.457H-5.569z" mask="url(#e)"/></g><g transform="translate(.04 .206)"><mask id="g" fill="#fff"><use xlink:href="#f"/></mask><path fill="url(#a)" d="M19.85 7.079a.72.72 0 0 0-.484-.568.708.708 0 0 0-.721.173l-3.67 3.75-2.907-5.58a.691.691 0 0 0-.62-.39.691.691 0 0 0-.62.39L9.25 7.904 5.26.403c-.319-.61-1.223-.449-1.329.233L.103 25.51l10.264 5.833a2.132 2.132 0 0 0 2.074 0l10.352-5.833L19.85 7.08z" mask="url(#g)"/></g></g></svg>