<svg xmlns="http://www.w3.org/2000/svg" viewBox="0 0 28 32"><path fill="#E535AB" d="M16.688 3.663l6.47 3.794c.181-.196.394-.37.635-.512a2.786 2.786 0 0 1 3.833 1.045c.77 1.363.313 3.101-1.029 3.893-.24.14-.49.24-.747.302v7.592c.253.062.502.162.74.3a2.865 2.865 0 0 1 1.028 3.893 2.784 2.784 0 0 1-4.526.473l-6.43 3.771c.092.282.142.584.142.898 0 1.567-1.253 2.848-2.804 2.848-1.55 0-2.804-1.273-2.804-2.848 0-.28.04-.55.114-.806l-6.468-3.793a2.783 2.783 0 0 1-4.46-.543c-.77-1.363-.313-3.101 1.029-3.893.237-.138.486-.238.739-.3v-7.592a2.785 2.785 0 0 1-.747-.302C.06 11.1-.397 9.353.374 7.99a2.784 2.784 0 0 1 4.466-.536l6.47-3.796a2.899 2.899 0 0 1-.114-.81C11.196 1.273 12.45 0 14 0c1.55 0 2.804 1.273 2.804 2.848 0 .283-.04.557-.116.815zm-.674 1.169l-.075.076 8.469 14.901.108-.03v-7.6a2.793 2.793 0 0 1-1.75-1.34 2.884 2.884 0 0 1-.268-2.204l-6.484-3.803zm-3.95.077a2.837 2.837 0 0 1-.081-.08L5.5 8.63a2.884 2.884 0 0 1-.265 2.207 2.793 2.793 0 0 1-1.751 1.34v7.602l.11.03 8.47-14.9zm2.72.675a2.772 2.772 0 0 1-1.565.001l-8.469 14.9a2.863 2.863 0 0 1 .789 1.388H22.46a2.882 2.882 0 0 1 .79-1.39l-8.467-14.9zm1.29 21.61l6.442-3.78a2.91 2.91 0 0 1-.052-.186H5.535a2.906 2.906 0 0 1-.029.11l6.474 3.797a2.775 2.775 0 0 1 4.094.058z"/></svg>