<svg xmlns="http://www.w3.org/2000/svg" viewBox="0 0 32 30"><path fill="#E44A49" d="M16.043 0C7.198 0 0 7.32 0 16.315c0 5.732 2.948 10.759 7.284 13.67l.78-.53c.174-.088.434-.265.608-.353.26-.088.52-.264.694-.353.26-.088.52-.176.78-.352.174-.088.434-.177.607-.265.26-.088.607-.176.867-.264.26-.089.434-.089.694-.177.26-.088.434-.088.694-.176.26-.088.52-.088.78-.088s.607-.089.867-.089v-9.7h-.867v-1.764h4.336v11.641c2.428.353 4.596 1.234 6.59 2.47C29.139 27.073 32 22.046 32 16.314 32.086 7.32 24.89 0 16.043 0zm4.77 16.315c0-2.646-2.168-4.85-4.77-4.85-2.602 0-4.77 2.204-4.77 4.85 0 1.852 1.041 3.527 2.602 4.321v.97c-1.995-.882-3.469-2.91-3.469-5.291 0-3.175 2.515-5.732 5.637-5.732 3.122 0 5.637 2.557 5.637 5.732 0 2.028-1.04 3.792-2.602 4.85v-1.058c1.04-.97 1.735-2.293 1.735-3.792zm-1.735 9.612v-.97c3.556-1.234 6.07-4.674 6.07-8.73 0-5.027-4.075-9.172-9.105-9.172s-9.105 4.145-9.105 9.26c0 4.321 2.948 8.025 6.937 8.995v.882c-4.423-.97-7.805-5.027-7.805-9.877 0-5.644 4.423-10.142 9.973-10.142 5.55 0 9.973 4.498 9.973 10.142 0 4.498-2.949 8.378-6.938 9.612z"/></svg>