<svg xmlns="http://www.w3.org/2000/svg" viewBox="0 0 31 32"><g fill="none" fill-rule="evenodd"><path fill="#000" d="M30.88 19.162c-.186-.564-.673-.956-1.303-1.05-.297-.045-.637-.026-1.039.057a9.36 9.36 0 0 1-1.601.211c1.433-2.422 2.598-5.185 3.27-7.785 1.084-4.205.505-6.12-.173-6.987C28.241 1.315 25.625.083 22.47.045a13.394 13.394 0 0 0-3.932.551 14.628 14.628 0 0 0-2.3-.21c-1.518-.024-2.86.307-4.006.988a18.249 18.249 0 0 0-2.83-.711C6.636.208 4.407.563 2.776 1.716.802 3.112-.114 5.537.056 8.926.11 10 .71 13.273 1.657 16.376c.544 1.784 1.124 3.266 1.724 4.404.851 1.614 1.762 2.564 2.784 2.906.573.19 1.614.325 2.708-.588.14.168.324.335.57.49a3.75 3.75 0 0 0 1.075.454c1.373.344 2.66.258 3.757-.224.007.195.012.382.016.543.008.262.015.518.024.758.065 1.62.176 2.881.502 3.763.018.049.042.123.067.201.163.5.436 1.335 1.129 1.99.717.677 1.585.885 2.38.885.398 0 .779-.052 1.112-.124 1.19-.255 2.54-.643 3.517-2.036.924-1.316 1.373-3.299 1.454-6.423l.03-.253.019-.165.218.019.056.004c1.21.055 2.692-.202 3.601-.625.72-.334 3.022-1.55 2.48-3.194"/><path fill="#336791" d="M28.809 19.481c-3.601.744-3.849-.476-3.849-.476 3.802-5.648 5.392-12.817 4.02-14.571C25.238-.352 18.76 1.91 18.652 1.97l-.035.006a12.832 12.832 0 0 0-2.403-.25c-1.629-.027-2.865.427-3.803 1.14 0 0-11.556-4.766-11.019 5.992.115 2.289 3.278 17.318 7.05 12.779a69.658 69.658 0 0 1 2.712-3.064 3.49 3.49 0 0 0 2.284.584l.064-.055c-.02.206-.01.408.026.647-.972 1.087-.686 1.277-2.629 1.678-1.966.405-.81 1.127-.057 1.316.914.229 3.029.553 4.458-1.45l-.057.23c.38.304.648 1.985.603 3.508-.044 1.524-.074 2.57.226 3.387.3.817.599 2.655 3.153 2.107 2.134-.458 3.24-1.644 3.394-3.623.109-1.407.356-1.199.371-2.457l.199-.595c.228-1.907.036-2.522 1.35-2.236l.32.028c.968.044 2.235-.156 2.978-.502 1.6-.743 2.55-1.985.972-1.659"/><path fill="#FFF" fill-rule="nonzero" d="M13.087 9.882c-.324-.045-.618-.004-.767.11a.282.282 0 0 0-.116.187c-.019.133.075.282.132.358.163.216.401.365.637.398a.724.724 0 0 0 .102.007c.393 0 .75-.307.782-.533.04-.283-.371-.472-.77-.527m10.752.009c-.031-.222-.426-.285-.8-.233-.374.052-.737.22-.707.443.025.173.337.468.706.468a.674.674 0 0 0 .094-.006.91.91 0 0 0 .514-.281c.13-.138.206-.291.193-.391"/><path fill="#FFF" fill-rule="nonzero" d="M30.007 19.397c-.137-.416-.579-.55-1.313-.398-2.18.45-2.961.139-3.218-.05 1.695-2.584 3.089-5.708 3.841-8.623.356-1.38.553-2.663.57-3.708.017-1.147-.178-1.99-.58-2.505-1.624-2.075-4.005-3.189-6.889-3.22-1.982-.022-3.657.486-3.981.629a9.917 9.917 0 0 0-2.24-.288c-1.489-.024-2.775.332-3.84 1.06a17.125 17.125 0 0 0-3.12-.82c-2.527-.407-4.536-.098-5.969.918C1.558 3.605.768 5.773.921 8.836c.052 1.03.638 4.2 1.564 7.236 1.218 3.996 2.543 6.257 3.936 6.723.163.054.352.092.559.092.508 0 1.132-.23 1.78-1.01.791-.95 1.61-1.876 2.454-2.778a3.95 3.95 0 0 0 1.765.475c0 .016.002.032.004.048-.106.127-.21.255-.311.385-.427.542-.516.655-1.888.938-.39.08-1.428.294-1.443 1.022-.017.795 1.226 1.13 1.367 1.165.494.123.969.184 1.422.184 1.103 0 2.073-.363 2.848-1.064-.024 2.834.094 5.628.434 6.479.279.696.959 2.4 3.108 2.399a4.98 4.98 0 0 0 1.044-.119c2.243-.48 3.217-1.473 3.593-3.66.202-1.17.548-3.961.71-5.459.344.107.786.156 1.264.156.997 0 2.147-.212 2.869-.547.81-.377 2.272-1.3 2.007-2.104zm-5.34-10.119c-.008.442-.069.844-.133 1.262-.07.451-.141.917-.16 1.482-.017.55.051 1.123.118 1.676.134 1.118.272 2.268-.261 3.403a4.427 4.427 0 0 1-.236-.485 9.443 9.443 0 0 0-.41-.777c-.775-1.39-2.59-4.648-1.66-5.977.276-.396.979-.803 2.741-.584zm-2.137-7.49c2.583.058 4.627 1.025 6.074 2.876 1.11 1.42-.113 7.879-3.65 13.45l-.108-.135-.044-.056c.914-1.51.735-3.006.576-4.331-.065-.544-.127-1.058-.111-1.541.016-.511.083-.95.149-1.375.08-.522.162-1.063.14-1.701a.706.706 0 0 0 .014-.24c-.057-.611-.755-2.441-2.177-4.098-.777-.906-1.911-1.92-3.46-2.604a11.656 11.656 0 0 1 2.597-.244zM8.074 21.307c-.715.86-1.208.695-1.37.641-1.057-.353-2.284-2.59-3.366-6.136-.935-3.069-1.482-6.155-1.526-7.02-.136-2.737.527-4.644 1.97-5.669 2.35-1.668 6.213-.67 7.765-.163-.022.022-.045.042-.067.065C8.933 5.599 8.993 9.998 9 10.267c0 .104.008.251.02.453.044.74.125 2.117-.093 3.677-.202 1.45.244 2.868 1.225 3.892.1.105.206.205.316.3a65.561 65.561 0 0 0-2.394 2.717zm2.722-3.635c-.79-.826-1.15-1.974-.985-3.15.23-1.648.145-3.083.1-3.854a12.178 12.178 0 0 1-.016-.277c.372-.33 2.097-1.255 3.327-.973.56.129.903.511 1.045 1.17.736 3.406.097 4.825-.416 5.966-.105.235-.205.458-.29.687l-.067.178c-.167.45-.323.867-.42 1.264-.84-.003-1.657-.362-2.278-1.011zm.129 4.594a1.972 1.972 0 0 1-.596-.256c.109-.051.301-.12.635-.19 1.615-.332 1.864-.567 2.409-1.26.125-.158.266-.338.462-.557.293-.328.426-.272.668-.172.197.082.388.328.465.599.037.128.078.37-.057.56-1.137 1.595-2.795 1.574-3.986 1.276zm8.452 7.873c-1.976.424-2.675-.586-3.136-1.74-.298-.744-.444-4.102-.34-7.81a.447.447 0 0 0-.02-.143 1.874 1.874 0 0 0-.055-.262c-.154-.54-.53-.99-.981-1.178-.18-.074-.508-.21-.903-.11.084-.347.23-.74.388-1.165l.067-.178c.075-.202.169-.41.268-.632.537-1.194 1.272-2.829.474-6.522-.299-1.384-1.297-2.06-2.81-1.903-.907.094-1.737.46-2.15.67a6.95 6.95 0 0 0-.247.132c.116-1.394.552-4 2.185-5.647 1.028-1.038 2.397-1.55 4.065-1.523 3.286.054 5.394 1.742 6.583 3.15 1.025 1.211 1.58 2.433 1.801 3.091-1.665-.17-2.798.16-3.372.982-1.25 1.787.683 5.257 1.612 6.924.17.306.317.57.364.682.302.734.694 1.224.98 1.582.087.11.172.215.237.308-.505.146-1.41.482-1.328 2.164-.067.843-.54 4.793-.78 6.189-.319 1.843-.996 2.53-2.902 2.939zm8.247-9.447c-.516.24-1.38.42-2.2.458-.905.043-1.366-.101-1.475-.19-.05-1.048.34-1.157.751-1.273.065-.018.128-.036.19-.058.037.031.079.062.124.092.728.481 2.027.533 3.86.154l.02-.004c-.247.232-.67.542-1.27.821z"/></g></svg>