<svg xmlns="http://www.w3.org/2000/svg" viewBox="0 0 32 32"><g fill="none" fill-rule="evenodd"><rect width="3.048" height="1.524" x="22.857" y="6.095" fill="#56B3B4" rx=".625"/><rect width="9.143" height="1.524" y="30.476" fill="#EA5E5E" rx=".625"/><rect width="6.095" height="1.524" x="18.286" y="18.286" fill="#BF85BF" rx=".625"/><rect width="7.619" height="1.524" x="9.143" y="18.286" fill="#EA5E5E" rx=".625"/><rect width="7.619" height="1.524" y="18.286" fill="#56B3B4" rx=".625"/><rect width="9.143" height="1.524" y="24.381" fill="#BF85BF" rx=".625"/><rect width="9.143" height="1.524" y="12.19" fill="#BF85BF" rx=".625"/><rect width="16.762" height="1.524" x="7.619" y="3.048" fill="#F7BA3E" rx=".625"/><rect width="6.095" height="1.524" y="3.048" fill="#EA5E5E" rx=".625"/><rect width="3.048" height="1.524" x="6.095" y="27.429" fill="#F7BA3E" rx=".625"/><rect width="3.048" height="1.524" x="6.095" y="9.143" fill="#56B3B4" rx=".625"/><rect width="4.571" height="1.524" y="27.429" fill="#56B3B4" rx=".625"/><rect width="4.571" height="1.524" y="9.143" fill="#F7BA3E" rx=".625"/><rect width="3.048" height="1.524" x="19.81" y="27.429" fill="#D0D4D8" opacity=".5" rx=".625"/><rect width="7.619" height="1.524" x="10.667" y="27.429" fill="#D0D4D8" opacity=".5" rx=".625"/><rect width="7.619" height="1.524" x="24.381" y="27.429" fill="#D0D4D8" opacity=".5" rx=".625"/><rect width="13.714" height="1.524" x="12.19" y="15.238" fill="#56B3B4" rx=".625"/><rect width="6.095" height="1.524" x="4.571" y="15.238" fill="#F7BA3E" rx=".625"/><rect width="3.048" height="1.524" y="15.238" fill="#EA5E5E" rx=".625"/><rect width="7.619" height="1.524" x="13.714" y="6.095" fill="#BF85BF" rx=".625"/><rect width="12.19" height="1.524" y="6.095" fill="#56B3B4" rx=".625"/><rect width="15.238" height="1.524" x="4.571" y="21.333" fill="#F7BA3E" rx=".625"/><rect width="3.048" height="1.524" y="21.333" fill="#BF85BF" rx=".625"/><rect width="9.143" height="1.524" x="18.286" y="9.143" fill="#EA5E5E" rx=".625"/><rect width="9.143" height="1.524" x="18.286" y="12.19" fill="#F7BA3E" rx=".625"/><rect width="19.81" height="1.524" fill="#56B3B4" rx=".625"/><rect width="10.667" height="1.524" x="21.333" fill="#D0D4D8" opacity=".5" rx=".625"/><rect width="4.571" height="1.524" x="21.333" y="21.333" fill="#D0D4D8" opacity=".5" rx=".625"/><rect width="4.571" height="1.524" x="27.429" y="21.333" fill="#D0D4D8" opacity=".5" rx=".625"/><rect width="6.095" height="1.524" x="25.905" y="18.286" fill="#D0D4D8" opacity=".5" rx=".625"/><rect width="6.095" height="1.524" x="25.905" y="3.048" fill="#D0D4D8" opacity=".5" rx=".625"/><rect width="4.571" height="1.524" x="27.429" y="15.238" fill="#D0D4D8" opacity=".5" rx=".625"/><rect width="4.571" height="1.524" x="27.429" y="6.095" fill="#D0D4D8" opacity=".5" rx=".625"/><rect width="3.048" height="1.524" x="28.952" y="9.143" fill="#D0D4D8" opacity=".5" rx=".625"/><rect width="3.048" height="1.524" x="28.952" y="12.19" fill="#D0D4D8" opacity=".5" rx=".625"/><rect width="15.238" height="1.524" x="16.762" y="24.381" fill="#D0D4D8" opacity=".5" rx=".625"/><rect width="4.571" height="1.524" x="10.667" y="24.381" fill="#D0D4D8" opacity=".5" rx=".625"/><rect width="9.143" height="1.524" x="22.857" y="30.476" fill="#D0D4D8" opacity=".5" rx=".625"/><rect width="10.667" height="1.524" x="10.667" y="30.476" fill="#D0D4D8" opacity=".5" rx=".625"/><rect width="6.095" height="1.524" x="10.667" y="9.143" fill="#D0D4D8" opacity=".5" rx=".625"/><rect width="6.095" height="1.524" x="10.667" y="12.19" fill="#D0D4D8" opacity=".5" rx=".625"/></g></svg>