<svg xmlns="http://www.w3.org/2000/svg" viewBox="0 0 34 30"><g fill="none" fill-rule="evenodd" transform="translate(1 1)"><ellipse cx="16.002" cy="13.949" fill="#00D8FF" rx="2.978" ry="2.945"/><path stroke="#00D8FF" stroke-width="1.425" d="M16.002 7.961c3.999 0 7.713.568 10.514 1.521 3.375 1.149 5.45 2.89 5.45 4.467 0 1.643-2.199 3.493-5.823 4.68-2.74.897-6.345 1.366-10.141 1.366-3.892 0-7.578-.44-10.348-1.376C2.15 17.434.037 15.56.037 13.949c0-1.564 1.981-3.292 5.309-4.439 2.811-.97 6.618-1.549 10.656-1.549z"/><path stroke="#00D8FF" stroke-width="1.425" d="M10.73 10.972c1.998-3.425 4.35-6.323 6.585-8.246C20.008.41 22.57-.498 23.951.29c1.44.82 1.962 3.628 1.192 7.325-.583 2.796-1.973 6.118-3.87 9.369-1.944 3.333-4.17 6.27-6.374 8.175-2.79 2.411-5.486 3.283-6.898 2.478-1.37-.781-1.895-3.341-1.237-6.764.555-2.892 1.949-6.442 3.966-9.9z"/><path stroke="#00D8FF" stroke-width="1.425" d="M10.735 16.993c-2.003-3.422-3.368-6.885-3.937-9.76-.685-3.463-.2-6.11 1.18-6.9 1.438-.824 4.159.131 7.013 2.637 2.159 1.895 4.375 4.746 6.277 7.994 1.95 3.33 3.412 6.704 3.98 9.543.72 3.594.137 6.339-1.274 7.146-1.369.784-3.873-.046-6.544-2.318-2.257-1.92-4.672-4.887-6.695-8.342z"/></g></svg>