<svg xmlns="http://www.w3.org/2000/svg" viewBox="0 0 32 31"><path d="M16.218 30.829c3.5-12.667 3.398-12.724 5.928-21.756l.608.356c.33.192.601.034.601-.351V4.77C24.027 2.39 24.552.55 24.707 0h2.74L32 4.268l-2.99 2.615 2.26 2.477-14.903 21.47c-.072.121-.174.094-.15 0zm1.628-27.303c.136 0 .244.075.244.17v2.207c0 .092-.11.167-.244.167h-3.68c-.136 0-.246-.075-.246-.168V3.694c0-.093.11-.17.245-.17h3.68v.002zm4.544-2.444l-4.05 2.366a.457.457 0 0 1 .075.247v2.208a.455.455 0 0 1-.117.3l4.09 2.39c.28.164.508.03.508-.295v-6.92c0-.326-.227-.459-.506-.296zm-8.796 4.821V3.694c0-.09.03-.174.076-.246L9.62 1.08c-.278-.162-.507-.029-.507.297v6.92c0 .325.229.459.508.295l4.09-2.39a.455.455 0 0 1-.116-.3v.001zm2.038 24.926h.15c-3.499-12.667-3.398-12.724-5.928-21.756l-.608.356c-.33.192-.601.034-.601-.351V4.77C7.973 2.39 7.448.55 7.293 0h-2.74L0 4.268l2.99 2.615L.728 9.36l14.904 21.469zm.257-20.149c.61 0 1.105-.5 1.105-1.119 0-.618-.495-1.119-1.105-1.119s-1.106.501-1.106 1.12c0 .617.495 1.118 1.106 1.118zm0 6.653c.61 0 1.105-.501 1.105-1.12 0-.617-.495-1.118-1.105-1.118s-1.106.5-1.106 1.119c0 .618.495 1.119 1.106 1.119zm0 6.654c.61 0 1.105-.501 1.105-1.12 0-.617-.495-1.118-1.105-1.118s-1.106.5-1.106 1.119c0 .618.495 1.119 1.106 1.119z"/></svg>