<svg xmlns="http://www.w3.org/2000/svg" viewBox="0 0 28 32"><g fill="none" fill-rule="evenodd"><path fill="#FFF" d="M14 .005l14 7.99v15.984l-14 7.99-14-7.99V7.995z"/><path fill="#8ED6FB" fill-rule="nonzero" d="M25.501 23.425L14.465 29.73v-4.903l6.878-3.822 4.158 2.42zm.756-.688V9.562l-4.037 2.35v8.475l4.037 2.35zm-23.8.688l11.036 6.3V24.82l-6.879-3.816-4.157 2.42zm-.756-.688V9.562l4.036 2.35v8.475l-4.036 2.35zm.47-14.028l11.322-6.46v4.744l-7.254 4.024-.058.032-4.01-2.34zm23.61 0l-11.316-6.46v4.744l7.248 4.03.058.031 4.01-2.345z"/><path fill="#1C78C0" fill-rule="nonzero" d="M13.493 23.707L6.709 19.94v-7.456l6.784 3.949v7.275zm.972 0l6.783-3.763v-7.461l-6.783 3.949v7.275zM7.164 11.62l6.815-3.779 6.81 3.78-6.81 3.965-6.815-3.966z"/></g></svg>