<?xml version="1.0" standalone="no"?>
<!DOCTYPE svg PUBLIC "-//W3C//DTD SVG 20010904//EN"
 "http://www.w3.org/TR/2001/REC-SVG-20010904/DTD/svg10.dtd">
<svg version="1.0" xmlns="http://www.w3.org/2000/svg"
 width="350.000000pt" height="350.000000pt" viewBox="0 0 350.000000 350.000000"
 preserveAspectRatio="xMidYMid meet">
<metadata>
Created by potrace 1.14, written by Peter Selinger 2001-2017
</metadata>
<g transform="translate(0.000000,350.000000) scale(0.100000,-0.100000)"
fill="#000000" stroke="none">
<path d="M2590 3132 c-17 -14 -24 -33 -29 -78 -4 -44 -15 -73 -42 -114 -48
-74 -100 -202 -144 -357 -21 -70 -38 -135 -40 -143 -2 -8 -11 -46 -20 -85 -19
-82 -20 -84 -40 -195 -9 -47 -20 -105 -25 -130 -5 -25 -12 -65 -16 -90 -3 -25
-8 -52 -9 -60 -1 -8 -6 -39 -10 -68 -4 -29 -9 -51 -12 -48 -14 13 5 468 23
551 28 136 29 160 3 184 -45 42 -211 87 -257 70 -33 -12 -41 -38 -49 -160 -9
-145 -10 -608 0 -719 20 -248 58 -405 124 -513 44 -72 94 -107 155 -109 88 -1
106 19 71 85 -12 24 -16 57 -16 127 0 88 10 283 17 340 2 14 7 57 11 95 4 39
8 77 10 85 2 8 6 38 9 65 8 60 16 110 22 139 2 11 9 50 15 86 40 247 160 693
197 730 2 3 1 -24 -3 -60 -9 -81 -11 -96 -20 -195 -3 -44 -8 -92 -10 -108 -2
-15 -7 -66 -10 -115 -4 -48 -9 -105 -10 -127 -13 -158 -18 -294 -18 -443 1
-167 10 -389 17 -401 2 -3 7 -27 10 -52 18 -131 68 -224 141 -259 71 -35 176
-25 189 18 3 10 0 40 -8 67 -11 36 -13 60 -5 99 22 119 203 784 237 876 7 17
9 -28 9 -145 0 -181 5 -249 28 -365 3 -14 8 -38 11 -55 10 -56 64 -207 91
-252 33 -57 94 -120 128 -133 34 -13 106 -13 140 0 20 8 25 15 20 28 -50 118
-84 266 -101 432 -14 128 -8 426 10 535 6 34 27 160 32 190 2 11 22 95 45 186
23 92 39 174 36 183 -13 33 -79 49 -244 60 -59 4 -106 -73 -139 -228 -9 -39
-17 -78 -19 -86 -2 -8 -19 -62 -38 -120 -37 -108 -89 -271 -126 -395 -11 -38
-52 -173 -91 -300 l-70 -230 5 250 c3 138 7 270 9 295 3 25 7 92 11 150 3 58
8 121 10 140 2 19 6 73 9 120 4 47 9 96 11 110 2 14 7 56 10 93 3 37 7 82 10
100 2 18 7 59 10 92 3 33 8 85 12 115 4 30 7 79 7 109 0 50 -2 56 -38 87 -70
60 -199 84 -246 46z"/>
<path d="M1366 3128 c-115 -24 -289 -158 -461 -353 -98 -111 -123 -146 -192
-260 -130 -219 -196 -406 -207 -594 -2 -39 -5 -74 -7 -75 -2 -2 -38 -24 -80
-50 -113 -68 -198 -104 -259 -111 -91 -9 -108 -15 -135 -47 -41 -49 -30 -123
30 -202 79 -104 206 -78 406 83 l85 69 13 -32 c70 -175 167 -308 260 -355 73
-37 191 -3 367 105 76 47 86 51 78 31 -9 -24 -11 -298 -2 -351 4 -28 10 -68
13 -90 23 -152 123 -378 204 -463 70 -73 101 -87 189 -84 42 1 42 22 1 104
-84 166 -118 342 -114 591 3 178 10 261 31 376 43 231 102 430 186 619 41 94
49 122 45 154 -10 75 -66 110 -177 111 -216 2 -457 -67 -727 -209 -87 -46
-121 -59 -117 -47 27 83 102 224 164 307 147 196 304 322 606 489 67 36 127
73 134 81 27 32 -24 127 -88 162 -71 40 -171 57 -246 41z m146 -955 c-19 -27
-41 -73 -84 -173 -33 -77 -58 -150 -93 -280 l-34 -125 -105 -101 c-105 -101
-235 -198 -283 -210 -29 -8 -56 18 -107 107 -55 92 -70 151 -71 267 l0 103 40
35 c22 20 60 52 85 72 25 20 56 47 70 60 36 34 224 159 283 189 114 57 291
110 311 93 5 -5 0 -21 -12 -37z"/>
</g>
</svg>
